Coordinates
version=1
nRows=15
nColumns=46
inDegrees=yes

Units are S.I. units (second, meters, Newtons, ...)
Angles are in degrees.

endheader
time	pelvis_tilt	pelvis_list	pelvis_rotation	pelvis_tx	pelvis_ty	pelvis_tz	bb_angle	bb_tx	bb_ty	bb_tz	hip_flexion_r	hip_adduction_r	hip_rotation_r	knee_angle_r	knee_angle_r_beta	ankle_angle_r	subtalar_angle_r	mtp_angle_r	crank_angle_r	hip_flexion_l	hip_adduction_l	hip_rotation_l	knee_angle_l	knee_angle_l_beta	ankle_angle_l	subtalar_angle_l	mtp_angle_l	crank_angle_l	lumbar_extension	lumbar_bending	lumbar_rotation	arm_flex_r	arm_add_r	arm_rot_r	elbow_flex_r	pro_sup_r	wrist_flex_r	wrist_dev_r	arm_flex_l	arm_add_l	arm_rot_l	elbow_flex_l	pro_sup_l	wrist_flex_l	wrist_dev_l
      0.00000000	    -18.11064649	     -1.71490104	      0.37454285	      0.07474230	      1.09238806	     -0.27449203	      0.00000000	      0.50000000	      0.00000000	      0.25000000	     79.12833756	     -2.52544403	      1.03071499	     78.84304432	      1.37607072	      7.18651528	    -11.07527901	      0.00000000	      0.00000000	     56.08694681	     -8.06831727	      1.12256285	     80.49896111	      1.40497192	      9.78089098	     -3.66558379	      0.00000000	      0.00000000	    -47.11542856	      0.01201799	      3.93243036	     89.46531193	     -9.29911794	     43.55278303	     21.28875967	     28.28884215	      0.00000000	      0.00000000	     89.57043095	     -4.48368804	     18.29818293	     46.90949125	     31.39094109	      0.00000000	      0.00000000
      0.00500000	    -18.14680168	     -1.69522063	      0.34483603	      0.07471165	      1.09231622	     -0.27445679	      0.00000000	      0.50000000	      0.00000000	      0.25000000	     79.18203184	     -2.49901917	      1.06386355	     78.84849414	      1.37616583	      7.16420899	    -11.09626339	      0.00000000	      0.00000000	     56.12647032	     -8.09050472	      1.08070250	     80.49867179	      1.40496687	      9.76071700	     -3.64864709	      0.00000000	      0.00000000	    -47.06504889	     -0.08453057	      4.09124632	     89.48497150	    -10.39264521	     47.46789433	     21.72236557	     28.52969934	      0.00000000	      0.00000000	     89.57109629	     -4.23505538	     18.48288284	     46.80178173	     31.54635459	      0.00000000	      0.00000000
      0.01000000	    -18.10943620	     -1.69994412	      0.35370499	      0.07471627	      1.09236399	     -0.27447945	      0.00000000	      0.50000000	      0.00000000	      0.25000000	     79.15090418	     -2.50506694	      1.06043421	     78.86638976	      1.37647817	      7.15214112	    -11.11835183	      0.00000000	      0.00000000	     56.08470827	     -8.08187159	      1.08493506	     80.49999086	      1.40498989	      9.79221285	     -3.67025941	      0.00000000	      0.00000000	    -47.11076781	     -0.04604262	      3.94947944	     89.48101555	     -9.89533839	     46.12961759	     21.49679099	     28.43477254	      0.00000000	      0.00000000	     89.56824601	     -4.45044184	     18.40229884	     46.93349376	     31.76996169	      0.00000000	      0.00000000
      0.01500000	    -17.99139438	     -1.69487342	      0.39888471	      0.07474377	      1.09265347	     -0.27468581	      0.00000000	      0.50000000	      0.00000000	      0.25000000	     79.03641320	     -2.57406275	      1.03897760	     78.88773608	      1.37685073	      7.11296608	    -11.12980394	      0.00000000	      0.00000000	     55.91976027	     -7.98660064	      1.14393555	     80.44939576	      1.40410684	      9.81081041	     -3.70795700	      0.00000000	      0.00000000	    -47.27130234	     -0.03163137	      4.18641311	     89.44949815	    -10.25953025	     44.76583684	     22.04052494	     29.36127909	      0.00000000	      0.00000000	     89.58463997	     -4.06718035	     18.42508760	     46.67889391	     32.54033351	      0.00000000	      0.00000000
      0.02000000	    -18.09948149	     -1.66331249	      0.35156359	      0.07470295	      1.09259803	     -0.27457729	      0.00000000	      0.50000000	      0.00000000	      0.25000000	     79.17554192	     -2.54478463	      1.09901695	     78.91600644	      1.37734414	      7.13678017	    -11.02013417	      0.00000000	      0.00000000	     56.01986003	     -8.01738065	      1.06485706	     80.42645819	      1.40370650	      9.72844533	     -3.80141805	      0.00000000	      0.00000000	    -47.10712915	     -0.07705244	      4.01704185	     89.47249902	     -9.96033757	     45.63201299	     21.31236613	     29.54583793	      0.00000000	      0.00000000	     89.57426548	     -4.36717361	     18.49403701	     46.78837480	     32.71825098	      0.00000000	      0.00000000
      0.02500000	    -18.11129447	     -1.67641903	      0.30687438	      0.07468964	      1.09260208	     -0.27443299	      0.00000000	      0.50000000	      0.00000000	      0.25000000	     79.19496550	     -2.46949602	      1.11752820	     78.91881669	      1.37739319	      7.12735254	    -11.06464217	      0.00000000	      0.00000000	     56.02634449	     -8.07672279	      1.05360770	     80.42644232	      1.40370622	      9.75497705	     -3.78732157	      0.00000000	      0.00000000	    -47.09463909	     -0.11285236	      4.15312777	     89.46015337	    -10.06965246	     45.16715550	     21.38813552	     30.22221169	      0.00000000	      0.00000000	     89.57926340	     -4.25721900	     18.49314478	     46.56406732	     33.28069422	      0.00000000	      0.00000000
      0.03000000	    -18.09520770	     -1.66226676	      0.31402606	      0.07469466	      1.09263460	     -0.27443772	      0.00000000	      0.50000000	      0.00000000	      0.25000000	     79.18338431	     -2.47996122	      1.13290011	     78.93292566	      1.37763944	      7.13777990	    -11.08472699	      0.00000000	      0.00000000	     56.00511696	     -8.06420838	      1.04004007	     80.41172687	      1.40344939	      9.71380538	     -3.78459835	      0.00000000	      0.00000000	    -47.10050987	     -0.14145623	      4.06364352	     89.49039028	    -10.48216749	     47.87280043	     21.64231070	     29.13601911	      0.00000000	      0.00000000	     89.57020391	     -4.37776481	     18.62347773	     46.89842344	     32.27975789	      0.00000000	      0.00000000
      0.03500000	    -18.11686234	     -1.69667705	      0.29873610	      0.07468521	      1.09267288	     -0.27446213	      0.00000000	      0.50000000	      0.00000000	      0.25000000	     79.19247764	     -2.45498549	      1.10509423	     78.90866738	      1.37721605	      7.10094077	    -11.06487259	      0.00000000	      0.00000000	     56.02299188	     -8.08825142	      1.06406293	     80.39860470	      1.40322037	      9.71002480	     -3.77036479	      0.00000000	      0.00000000	    -47.09482205	     -0.11036723	      4.23000217	     89.46226710	    -10.46913187	     46.55912479	     21.73543350	     29.54321997	      0.00000000	      0.00000000	     89.58500714	     -4.15525485	     18.61065896	     46.63342589	     32.67938813	      0.00000000	      0.00000000
      0.04000000	    -18.07361827	     -1.66996660	      0.33934430	      0.07467088	      1.09271659	     -0.27449665	      0.00000000	      0.50000000	      0.00000000	      0.25000000	     79.16120031	     -2.50602207	      1.13078538	     78.93215899	      1.37762606	      7.11632648	    -11.07512251	      0.00000000	      0.00000000	     55.97102562	     -8.03102721	      1.07359881	     80.38320960	      1.40295167	      9.71416419	     -3.81472638	      0.00000000	      0.00000000	    -47.14598675	     -0.08935857	      3.94545034	     89.47940981	     -9.81537557	     45.64762211	     21.30929240	     28.93680020	      0.00000000	      0.00000000	     89.57053235	     -4.51006104	     18.51317013	     46.92993627	     32.49134746	      0.00000000	      0.00000000
      0.04500000	    -18.10022882	     -1.67983104	      0.31681465	      0.07465351	      1.09265665	     -0.27446478	      0.00000000	      0.50000000	      0.00000000	      0.25000000	     79.19546070	     -2.47344257	      1.12718585	     78.93765961	      1.37772206	      7.11564084	    -11.08062616	      0.00000000	      0.00000000	     56.00417164	     -8.05635289	      1.06795938	     80.39256977	      1.40311504	      9.70978453	     -3.83090519	      0.00000000	      0.00000000	    -47.10255461	     -0.12730862	      4.06177359	     89.48679288	    -10.42914784	     47.74202796	     21.69569096	     28.47503904	      0.00000000	      0.00000000	     89.57329127	     -4.40893484	     18.78031009	     46.96860659	     31.95253923	      0.00000000	      0.00000000
      0.05000000	    -18.12451208	     -1.70854910	      0.32397309	      0.07462229	      1.09259927	     -0.27446432	      0.00000000	      0.50000000	      0.00000000	      0.25000000	     79.22403118	     -2.46784945	      1.10253376	     78.95124769	      1.37795922	      7.14287720	    -11.05451507	      0.00000000	      0.00000000	     56.04690783	     -8.07004574	      1.09277913	     80.39989031	      1.40324280	      9.69161167	     -3.85422989	      0.00000000	      0.00000000	    -47.07809817	     -0.06719161	      4.02978075	     89.46964873	     -9.91775197	     45.79052630	     21.53955139	     28.10659968	      0.00000000	      0.00000000	     89.58012795	     -4.48507706	     18.47501385	     46.13926088	     31.77052359	      0.00000000	      0.00000000
      0.05500000	    -18.11680937	     -1.68450207	      0.29745832	      0.07462064	      1.09261028	     -0.27443568	      0.00000000	      0.50000000	      0.00000000	      0.25000000	     79.22606276	     -2.44216209	      1.13852755	     78.95101889	      1.37795523	      7.10018524	    -11.11300264	      0.00000000	      0.00000000	     56.02626289	     -8.07798264	      1.05539467	     80.39477671	      1.40315356	      9.69962061	     -3.84309803	      0.00000000	      0.00000000	    -47.08439164	     -0.12959552	      3.98752508	     89.48686823	    -10.25026339	     47.46964763	     21.59128637	     28.66871116	      0.00000000	      0.00000000	     89.57615375	     -4.60634050	     18.63203857	     46.25434026	     32.00491788	      0.00000000	      0.00000000
      0.06000000	    -18.10870565	     -1.72389684	      0.30577506	      0.07460121	      1.09263501	     -0.27442904	      0.00000000	      0.50000000	      0.00000000	      0.25000000	     79.21018559	     -2.42897154	      1.10162719	     78.94536840	      1.37785661	      7.09878033	    -11.14472843	      0.00000000	      0.00000000	     56.02578697	     -8.09752626	      1.10317088	     80.39164029	      1.40309881	      9.71167333	     -3.81190902	      0.00000000	      0.00000000	    -47.09633379	     -0.11676626	      4.23710851	     89.45710182	    -10.38512603	     46.05918234	     21.70131427	     29.52285210	      0.00000000	      0.00000000	     89.58403668	     -4.18925814	     18.62696858	     46.62018916	     32.84618398	      0.00000000	      0.00000000
      0.06500000	    -18.18232447	     -1.75473517	      0.33521383	      0.07451702	      1.09249337	     -0.27448897	      0.00000000	      0.50000000	      0.00000000	      0.25000000	     79.28200997	     -2.43725824	      1.10356895	     78.92665998	      1.37753008	      7.09638695	    -11.06592299	      0.00000000	      0.00000000	     56.13220259	     -8.07269746	      1.17634610	     80.41004996	      1.40342012	      9.65390375	     -3.85040477	      0.00000000	      0.00000000	    -47.00398730	     -0.07047798	      4.07976550	     89.45363640	    -10.10770327	     45.84228856	     21.28075196	     29.95370291	      0.00000000	      0.00000000	     89.58866224	     -4.40008270	     18.42668633	     45.90879306	     33.10287130	      0.00000000	      0.00000000
      0.07000000	    -18.10926206	     -1.69510654	      0.29990819	      0.07459457	      1.09264120	     -0.27445137	      0.00000000	      0.50000000	      0.00000000	      0.25000000	     79.22183007	     -2.43228092	      1.13597303	     78.95218451	      1.37797557	      7.06075797	    -11.12357958	      0.00000000	      0.00000000	     56.00869680	     -8.07270992	      1.07459309	     80.37464577	      1.40280220	      9.72888315	     -3.85704594	      0.00000000	      0.00000000	    -47.09778179	     -0.13398683	      4.02893491	     89.48477211	    -10.39902858	     47.71223037	     21.59465734	     29.16581927	      0.00000000	      0.00000000	     89.58066321	     -4.53355452	     18.58064007	     46.13376520	     32.31020934	      0.00000000	      0.00000000
